<svg width="30" height="22" viewBox="0 0 30 22" fill="none" xmlns="http://www.w3.org/2000/svg">
<g clip-path="url(#clip0_505_470)">
<path d="M25.71 21.6601H4.29004C3.16328 21.6588 2.08304 21.2106 1.2863 20.4138C0.489554 19.6171 0.0413623 18.5369 0.0400391 17.4101V4.59009C0.0413623 3.46332 0.489554 2.38309 1.2863 1.58635C2.08304 0.789603 3.16328 0.341411 4.29004 0.340088H25.71C26.8368 0.341411 27.917 0.789603 28.7138 1.58635C29.5105 2.38309 29.9587 3.46332 29.96 4.59009V17.4101C29.9587 18.5369 29.5105 19.6171 28.7138 20.4138C27.917 21.2106 26.8368 21.6588 25.71 21.6601ZM4.29004 1.84009C3.56069 1.84009 2.86122 2.12982 2.3455 2.64554C1.82977 3.16127 1.54004 3.86074 1.54004 4.59009V17.4101C1.54004 18.1394 1.82977 18.8389 2.3455 19.3546C2.86122 19.8704 3.56069 20.1601 4.29004 20.1601H25.71C26.4394 20.1601 27.1389 19.8704 27.6546 19.3546C28.1703 18.8389 28.46 18.1394 28.46 17.4101V4.59009C28.46 3.86074 28.1703 3.16127 27.6546 2.64554C27.1389 2.12982 26.4394 1.84009 25.71 1.84009H4.29004Z" fill="#EEEEEE"/>
<path d="M14.9999 14.0401C14.0747 14.0416 13.1742 13.7414 12.4349 13.1851L0.759945 4.35511C0.677456 4.29721 0.60748 4.22329 0.554198 4.13775C0.500915 4.05221 0.465418 3.95681 0.449826 3.85724C0.434235 3.75768 0.438869 3.656 0.463451 3.55826C0.488034 3.46053 0.532062 3.36875 0.592904 3.28841C0.653746 3.20807 0.730155 3.14082 0.817568 3.09067C0.904981 3.04052 1.0016 3.0085 1.10167 2.99653C1.20173 2.98455 1.30318 2.99286 1.39996 3.02097C1.49674 3.04907 1.58686 3.09639 1.66495 3.16011L13.3399 12.0001C13.8194 12.358 14.4017 12.5514 14.9999 12.5514C15.5982 12.5514 16.1805 12.358 16.6599 12.0001L28.3349 3.16011C28.413 3.09639 28.5032 3.04907 28.5999 3.02097C28.6967 2.99286 28.7982 2.98455 28.8982 2.99653C28.9983 3.0085 29.0949 3.04052 29.1823 3.09067C29.2697 3.14082 29.3461 3.20807 29.407 3.28841C29.4678 3.36875 29.5119 3.46053 29.5364 3.55826C29.561 3.656 29.5657 3.75768 29.5501 3.85724C29.5345 3.95681 29.499 4.05221 29.4457 4.13775C29.3924 4.22329 29.3224 4.29721 29.2399 4.35511L17.5649 13.1851C16.8256 13.7414 15.9252 14.0416 14.9999 14.0401Z" fill="#EEEEEE"/>
<path d="M1.08496 19.57C0.932851 19.5702 0.784265 19.5242 0.658923 19.438C0.533581 19.3518 0.437408 19.2295 0.383166 19.0874C0.328924 18.9453 0.319177 18.7901 0.355219 18.6423C0.39126 18.4945 0.471386 18.3612 0.584965 18.26L9.78496 10.055C9.93349 9.92238 10.1286 9.85421 10.3274 9.86546C10.5262 9.87671 10.7124 9.96647 10.845 10.115C10.9776 10.2635 11.0458 10.4586 11.0345 10.6574C11.0232 10.8562 10.9335 11.0424 10.785 11.175L1.58496 19.38C1.44834 19.5043 1.26967 19.5722 1.08496 19.57ZM28.915 19.57C28.7303 19.5722 28.5516 19.5043 28.415 19.38L19.215 11.175C19.0664 11.0424 18.9767 10.8562 18.9654 10.6574C18.9542 10.4586 19.0224 10.2635 19.155 10.115C19.2876 9.96647 19.4737 9.87671 19.6725 9.86546C19.8713 9.85421 20.0664 9.92238 20.215 10.055L29.41 18.26C29.5235 18.3612 29.6037 18.4945 29.6397 18.6423C29.6758 18.7901 29.666 18.9453 29.6118 19.0874C29.5575 19.2295 29.4613 19.3518 29.336 19.438C29.2107 19.5242 29.0621 19.5702 28.91 19.57H28.915Z" fill="#EEEEEE"/>
</g>
<defs>
<clipPath id="clip0_505_470">
<rect width="30" height="22" fill="white"/>
</clipPath>
</defs>
</svg>
