<svg width="21" height="20" viewBox="0 0 21 20" fill="none" xmlns="http://www.w3.org/2000/svg">
<g clip-path="url(#clip0_561_2)">
<path d="M5.50059 6.99988C5.50078 6.99988 5.50035 6.99988 5.50059 6.99988H1.49998C1.22398 6.9997 1.00017 7.22333 0.999982 7.49927C0.999982 7.49909 0.999982 7.49952 0.999982 7.49927V19.4999C0.999799 19.7759 1.22343 19.9997 1.49937 19.9999C1.49919 19.9999 1.49962 19.9999 1.49937 19.9999H5.49998C5.77598 20.0001 5.9998 19.7764 5.99998 19.5004C5.99998 19.5006 5.99998 19.5002 5.99998 19.5004V7.49988C6.00017 7.22388 5.77653 7.00007 5.50059 6.99988ZM4.99998 18.9999H1.99998V7.99988H4.99998V18.9999ZM16 6.99988C14.9151 6.99995 13.8606 7.35798 13 8.01844V7.49988C13.0002 7.22388 12.7765 7.00007 12.5006 6.99988C12.5008 6.99988 12.5003 6.99988 12.5006 6.99988H8.49998C8.22398 6.9997 8.00017 7.22333 7.99998 7.49927C7.99998 7.49909 7.99998 7.49952 7.99998 7.49927V19.4999C7.9998 19.7759 8.22343 19.9997 8.49943 19.9999C8.49925 19.9999 8.49962 19.9999 8.49943 19.9999H12.5C12.776 20.0001 12.9998 19.7764 13 19.5004C13 19.5006 13 19.5002 13 19.5004V13.9999C13 13.1715 13.6716 12.4999 14.5 12.4999C15.3284 12.4999 16 13.1715 16 13.9999V19.4999C15.9998 19.7759 16.2234 19.9997 16.4994 19.9999C16.4992 19.9999 16.4996 19.9999 16.4994 19.9999H20.5C20.776 20.0001 20.9998 19.7764 21 19.5004C21 19.5006 21 19.5002 21 19.5004V11.9999C20.9967 9.23981 18.7601 7.00312 16 6.99988ZM20 18.9999H17V13.9999C17 12.6191 15.8807 11.4999 14.5 11.4999C13.1192 11.4999 12 12.6191 12 13.9999V18.9999H8.99998V7.99988H12V9.20301C12 9.41547 12.1344 9.60468 12.335 9.67469C12.5351 9.74683 12.759 9.68268 12.8907 9.51551C14.2532 7.7887 16.7576 7.49347 18.4844 8.85608C19.4463 9.61512 20.0053 10.7746 20 11.9999V18.9999ZM3.86796 0.00171498C3.75035 -0.00652482 3.63231 -0.00713508 3.51463 -0.000116076C2.00535 -0.103204 0.698286 1.03675 0.595197 2.54603C0.591047 2.60676 0.588972 2.66755 0.58885 2.7284C0.575849 4.22486 1.77842 5.44849 3.27488 5.46149C3.33598 5.46204 3.39702 5.46046 3.45799 5.45685H3.48631C4.99272 5.56226 6.2993 4.42652 6.40471 2.92011C6.51011 1.4137 5.37437 0.107123 3.86796 0.00171498ZM3.83342 4.45972C3.71794 4.47034 3.60161 4.46943 3.48631 4.45685H3.45799C2.50187 4.53034 1.66728 3.81489 1.59379 2.85877C1.52031 1.90272 2.23576 1.06806 3.19188 0.994574C3.29942 0.986334 3.40745 0.988104 3.51463 0.999884C4.47001 0.911871 5.3159 1.615 5.40397 2.57038C5.49199 3.52582 4.78886 4.37171 3.83342 4.45972Z" fill="#EEEEEE" fill-opacity="0.75"/>
</g>
<defs>
<clipPath id="clip0_561_2">
<rect width="21" height="20" fill="white"/>
</clipPath>
</defs>
</svg>
